<svg width="28" height="28" viewBox="0 0 28 28" fill="none" xmlns="http://www.w3.org/2000/svg">
<path d="M23.3704 5.19813C23.3195 5.0752 23.2443 4.95997 23.1447 4.85982C23.1433 4.85833 23.1418 4.85684 23.1403 4.85536C22.9504 4.66666 22.6889 4.55005 22.4 4.55005H8.40005C7.82015 4.55005 7.35005 5.02015 7.35005 5.60005C7.35005 6.17995 7.82015 6.65005 8.40005 6.65005H19.8651L4.85759 21.6576C4.44754 22.0676 4.44754 22.7325 4.85759 23.1425C5.26764 23.5526 5.93246 23.5526 6.34251 23.1425L21.35 8.13497V19.6C21.35 20.1799 21.8202 20.65 22.4 20.65C22.9799 20.65 23.4501 20.1799 23.4501 19.6V5.60005C23.4501 5.45768 23.4217 5.32193 23.3704 5.19813Z" fill="#8D9299"/>
</svg>
