<svg width="200" height="200" viewBox="0 0 200 200" fill="none" xmlns="http://www.w3.org/2000/svg">
<path fill-rule="evenodd" clip-rule="evenodd" d="M90.7012 114.641C91.7283 114.641 92.5609 115.473 92.5609 116.5C92.5609 126.687 85.7809 132.663 82.2346 134.436C81.316 134.895 80.1989 134.522 79.7396 133.604C79.2803 132.685 79.6526 131.568 80.5713 131.109C83.2237 129.783 88.8416 124.911 88.8416 116.5C88.8416 115.473 89.6741 114.641 90.7012 114.641Z" fill="#5C8EF2"/>
<path fill-rule="evenodd" clip-rule="evenodd" d="M109.298 114.641C108.272 114.641 107.438 115.473 107.438 116.5C107.438 126.687 114.219 132.663 117.765 134.436C118.684 134.895 119.8 134.522 120.26 133.604C120.719 132.685 120.347 131.568 119.429 131.109C116.776 129.783 111.158 124.911 111.158 116.5C111.158 115.473 110.326 114.641 109.298 114.641Z" fill="#5C8EF2"/>
<path d="M48.8592 71.8169C48.8592 69.5345 50.7094 67.6843 52.9917 67.6843H147.008C149.29 67.6843 151.14 69.5345 151.14 71.8169C151.14 90.0757 136.338 104.877 118.079 104.877H81.9198C63.661 104.877 48.8592 90.0757 48.8592 71.8169Z" fill="white"/>
<path fill-rule="evenodd" clip-rule="evenodd" d="M47 71.8169C47 68.5075 49.6828 65.8247 52.9922 65.8247H147.008C150.317 65.8247 153 68.5075 153 71.8169C153 91.1028 137.366 106.737 118.08 106.737H81.9202C62.6343 106.737 47 91.1028 47 71.8169ZM52.9922 69.544C51.7369 69.544 50.7193 70.5616 50.7193 71.8169C50.7193 89.0488 64.6884 103.018 81.9202 103.018H118.08C135.312 103.018 149.281 89.0488 149.281 71.8169C149.281 70.5616 148.263 69.544 147.008 69.544H52.9922Z" fill="#5C8EF2"/>
<path d="M67.4558 58.386C67.4558 55.8183 69.5373 53.7368 72.1049 53.7368H127.895C130.462 53.7368 132.544 55.8183 132.544 58.386V90.93C132.544 108.904 117.973 123.474 99.9998 123.474C82.0262 123.474 67.4558 108.904 67.4558 90.93V58.386Z" fill="white"/>
<path fill-rule="evenodd" clip-rule="evenodd" d="M65.5966 58.3861C65.5966 54.7914 68.5107 51.8773 72.1054 51.8773H127.895C131.489 51.8773 134.403 54.7914 134.403 58.3861V90.9301C134.403 109.931 119.001 125.334 99.9998 125.334C80.9997 125.334 65.5966 109.931 65.5966 90.9301V58.3861ZM72.1054 55.5966C70.5647 55.5966 69.3159 56.8455 69.3159 58.3861V90.9301C69.3159 107.876 83.0537 121.614 99.9998 121.614C116.947 121.614 130.684 107.876 130.684 90.9301V58.3861C130.684 56.8455 129.435 55.5966 127.895 55.5966H72.1054Z" fill="#5C8EF2"/>
<path d="M99.9993 72.3334L104.427 80.1876L113.264 81.9708L107.162 88.6082L108.197 97.5646L99.9993 93.8124L91.8012 97.5646L92.8363 88.6082L86.7344 81.9708L95.5723 80.1876L99.9993 72.3334Z" fill="#FFE187"/>
<path fill-rule="evenodd" clip-rule="evenodd" d="M99.9998 70.4739C100.671 70.4739 101.29 70.8357 101.62 71.4204L105.629 78.5332L113.632 80.1481C114.29 80.2808 114.826 80.7579 115.033 81.3963C115.241 82.0347 115.088 82.7353 114.633 83.2295L109.107 89.2403L110.046 97.3511C110.122 98.018 109.834 98.6747 109.291 99.0692C108.748 99.4637 108.034 99.535 107.424 99.2556L99.9998 95.8577L92.5757 99.2556C91.9652 99.535 91.2517 99.4637 90.7087 99.0692C90.1655 98.6747 89.8773 98.018 89.9544 97.3511L90.8917 89.2403L85.366 83.2295C84.9116 82.7353 84.759 82.0347 84.9664 81.3963C85.1738 80.7579 85.7092 80.2808 86.3672 80.1481L94.3707 78.5332L98.3797 71.4204C98.7094 70.8357 99.3285 70.4739 99.9998 70.4739ZM99.9998 76.1209L97.1929 81.1009C96.9275 81.5718 96.4704 81.9038 95.9406 82.0107L90.337 83.1413L94.2058 87.3498C94.5716 87.7477 94.7463 88.285 94.6841 88.8219L94.0279 94.5006L99.2259 92.1216C99.7173 91.8967 100.282 91.8967 100.773 92.1216L105.972 94.5006L105.316 88.8219C105.253 88.285 105.428 87.7477 105.794 87.3498L109.663 83.1413L104.059 82.0107C103.529 81.9038 103.072 81.5718 102.807 81.1009L99.9998 76.1209Z" fill="#FFE187"/>
<path d="M72.1049 156.018C72.1049 150.883 76.2679 146.72 81.4032 146.72H118.596C123.732 146.72 127.895 150.883 127.895 156.018V160.667H72.1049V156.018Z" fill="white"/>
<path fill-rule="evenodd" clip-rule="evenodd" d="M70.2457 156.018C70.2457 149.856 75.2413 144.86 81.4037 144.86H118.596C124.759 144.86 129.754 149.856 129.754 156.018V160.667C129.754 161.695 128.922 162.527 127.895 162.527H72.1054C71.0783 162.527 70.2457 161.695 70.2457 160.667V156.018ZM81.4037 148.579C77.2954 148.579 73.965 151.91 73.965 156.018V158.808H126.035V156.018C126.035 151.91 122.705 148.579 118.596 148.579H81.4037Z" fill="#5C8EF2"/>
<path d="M81.4032 132.772H118.596V146.72H81.4032V132.772Z" fill="white"/>
<path fill-rule="evenodd" clip-rule="evenodd" d="M79.544 132.772C79.544 131.745 80.3766 130.913 81.4036 130.913H118.596C119.624 130.913 120.456 131.745 120.456 132.772V146.72C120.456 147.747 119.624 148.579 118.596 148.579H81.4036C80.3766 148.579 79.544 147.747 79.544 146.72V132.772ZM83.2633 134.632V144.86H116.737V134.632H83.2633Z" fill="#5C8EF2"/>
<path d="M137.193 116.035L137.65 117.632C138.396 120.235 140.432 122.271 143.035 123.017L144.632 123.474L143.035 123.932C140.432 124.677 138.396 126.714 137.65 129.316L137.193 130.913L136.735 129.316C135.99 126.714 133.953 124.677 131.351 123.932L129.754 123.474L131.351 123.017C133.953 122.271 135.99 120.235 136.735 117.632L137.193 116.035Z" fill="#5C8EF2"/>
<path d="M58.1575 37L58.6145 38.5963C59.3609 41.1996 61.3965 43.2352 63.9998 43.9816L65.5961 44.4386L63.9998 44.8956C61.3965 45.642 59.3609 47.6777 58.6145 50.2809L58.1575 51.8773L57.7005 50.2809C56.9541 47.6777 54.9184 45.642 52.3152 44.8956L50.7189 44.4386L52.3152 43.9816C54.9184 43.2352 56.9541 41.1996 57.7005 38.5963L58.1575 37Z" fill="#5C8EF2"/>
</svg>
