<svg width="24" height="24" viewBox="0 0 24 24" fill="none" xmlns="http://www.w3.org/2000/svg">
<g id="icon-up-arrow">
<path id="Union" d="M12 3.8999C12.2646 3.8999 12.5026 4.01415 12.6673 4.19601L18.6659 10.7945C19.0003 11.1623 18.9732 11.7315 18.6054 12.0658C18.2376 12.4002 17.6684 12.3731 17.334 12.0053L12.9 7.12784V19.1999C12.9 19.697 12.497 20.0999 12 20.0999C11.5029 20.0999 11.1 19.697 11.1 19.1999V7.12786L6.66593 12.0053C6.33157 12.3731 5.76237 12.4002 5.39458 12.0658C5.02678 11.7315 4.99968 11.1623 5.33404 10.7945L11.3308 4.19801C11.4956 4.01498 11.7343 3.8999 12 3.8999C12 3.8999 12 3.8999 12 3.8999Z" fill="#47494D"/>
</g>
</svg>
